<svg width="274" height="74" viewBox="0 0 274 74" fill="none" xmlns="http://www.w3.org/2000/svg">
<mask id="path-1-outside-1_684_2254" maskUnits="userSpaceOnUse" x="-0.133789" y="-0.960938" width="274" height="75" fill="black">
<rect fill="white" x="-0.133789" y="-0.960938" width="274" height="75"/>
<path d="M0.999961 72.0391V1.95906H15.4V59.0791H43.72V72.0391H0.999961ZM76.3225 72.9991C69.2825 72.9991 63.6825 71.0151 59.5225 67.0471C55.3625 63.0791 53.2825 57.7031 53.2825 50.9191V23.0791C53.2825 16.2311 55.3625 10.8551 59.5225 6.95106C63.6825 2.98306 69.2825 0.999062 76.3225 0.999062C83.3625 0.999062 88.9625 2.98306 93.1225 6.95106C97.2825 10.8551 99.3625 16.2311 99.3625 23.0791V50.9191C99.3625 57.7031 97.2825 63.0791 93.1225 67.0471C88.9625 71.0151 83.3625 72.9991 76.3225 72.9991ZM76.3225 60.5191C82.0825 60.5191 84.9625 57.6391 84.9625 51.8791V22.1191C84.9625 16.3591 82.0825 13.4791 76.3225 13.4791C70.5625 13.4791 67.6825 16.3591 67.6825 22.1191V51.8791C67.6825 57.6391 70.5625 60.5191 76.3225 60.5191ZM134.269 72.9991C129.597 72.9991 125.501 72.1351 121.981 70.4071C118.461 68.6151 115.709 66.1511 113.725 63.0151C111.805 59.8151 110.845 56.1031 110.845 51.8791V22.1191C110.845 17.8311 111.805 14.1191 113.725 10.9831C115.709 7.84706 118.461 5.41506 121.981 3.68706C125.501 1.89506 129.597 0.999062 134.269 0.999062C139.005 0.999062 143.101 1.89506 146.557 3.68706C150.077 5.41506 152.797 7.84706 154.717 10.9831C156.701 14.1191 157.693 17.8311 157.693 22.1191H143.293C143.293 19.3031 142.493 17.1591 140.893 15.6871C139.357 14.2151 137.149 13.4791 134.269 13.4791C131.389 13.4791 129.149 14.2151 127.549 15.6871C126.013 17.1591 125.245 19.3031 125.245 22.1191V51.8791C125.245 54.6311 126.013 56.7751 127.549 58.3111C129.149 59.7831 131.389 60.5191 134.269 60.5191C137.149 60.5191 139.357 59.7831 140.893 58.3111C142.493 56.7751 143.293 54.6311 143.293 51.8791V45.3511H132.925V33.1591H157.693V51.8791C157.693 56.1031 156.701 59.8151 154.717 63.0151C152.797 66.1511 150.077 68.6151 146.557 70.4071C143.101 72.1351 139.005 72.9991 134.269 72.9991ZM170.327 72.0391V59.0791H184.247V14.9191H170.327V1.95906H212.567V14.9191H198.647V59.0791H212.567V72.0391H170.327ZM225.97 72.0391V1.95906H242.77L260.914 56.1991C260.722 53.8311 260.498 51.1111 260.242 48.0391C259.986 44.9031 259.762 41.7991 259.57 38.7271C259.442 35.5911 259.378 32.9351 259.378 30.7591V1.95906H272.05V72.0391H255.25L237.298 17.7991C237.49 19.8471 237.682 22.2791 237.874 25.0951C238.066 27.9111 238.226 30.7591 238.354 33.6391C238.546 36.5191 238.642 39.0791 238.642 41.3191V72.0391H225.97Z"/>
</mask>
<path d="M0.999961 72.0391V1.95906H15.4V59.0791H43.72V72.0391H0.999961ZM76.3225 72.9991C69.2825 72.9991 63.6825 71.0151 59.5225 67.0471C55.3625 63.0791 53.2825 57.7031 53.2825 50.9191V23.0791C53.2825 16.2311 55.3625 10.8551 59.5225 6.95106C63.6825 2.98306 69.2825 0.999062 76.3225 0.999062C83.3625 0.999062 88.9625 2.98306 93.1225 6.95106C97.2825 10.8551 99.3625 16.2311 99.3625 23.0791V50.9191C99.3625 57.7031 97.2825 63.0791 93.1225 67.0471C88.9625 71.0151 83.3625 72.9991 76.3225 72.9991ZM76.3225 60.5191C82.0825 60.5191 84.9625 57.6391 84.9625 51.8791V22.1191C84.9625 16.3591 82.0825 13.4791 76.3225 13.4791C70.5625 13.4791 67.6825 16.3591 67.6825 22.1191V51.8791C67.6825 57.6391 70.5625 60.5191 76.3225 60.5191ZM134.269 72.9991C129.597 72.9991 125.501 72.1351 121.981 70.4071C118.461 68.6151 115.709 66.1511 113.725 63.0151C111.805 59.8151 110.845 56.1031 110.845 51.8791V22.1191C110.845 17.8311 111.805 14.1191 113.725 10.9831C115.709 7.84706 118.461 5.41506 121.981 3.68706C125.501 1.89506 129.597 0.999062 134.269 0.999062C139.005 0.999062 143.101 1.89506 146.557 3.68706C150.077 5.41506 152.797 7.84706 154.717 10.9831C156.701 14.1191 157.693 17.8311 157.693 22.1191H143.293C143.293 19.3031 142.493 17.1591 140.893 15.6871C139.357 14.2151 137.149 13.4791 134.269 13.4791C131.389 13.4791 129.149 14.2151 127.549 15.6871C126.013 17.1591 125.245 19.3031 125.245 22.1191V51.8791C125.245 54.6311 126.013 56.7751 127.549 58.3111C129.149 59.7831 131.389 60.5191 134.269 60.5191C137.149 60.5191 139.357 59.7831 140.893 58.3111C142.493 56.7751 143.293 54.6311 143.293 51.8791V45.3511H132.925V33.1591H157.693V51.8791C157.693 56.1031 156.701 59.8151 154.717 63.0151C152.797 66.1511 150.077 68.6151 146.557 70.4071C143.101 72.1351 139.005 72.9991 134.269 72.9991ZM170.327 72.0391V59.0791H184.247V14.9191H170.327V1.95906H212.567V14.9191H198.647V59.0791H212.567V72.0391H170.327ZM225.97 72.0391V1.95906H242.77L260.914 56.1991C260.722 53.8311 260.498 51.1111 260.242 48.0391C259.986 44.9031 259.762 41.7991 259.57 38.7271C259.442 35.5911 259.378 32.9351 259.378 30.7591V1.95906H272.05V72.0391H255.25L237.298 17.7991C237.49 19.8471 237.682 22.2791 237.874 25.0951C238.066 27.9111 238.226 30.7591 238.354 33.6391C238.546 36.5191 238.642 39.0791 238.642 41.3191V72.0391H225.97Z" fill="#FFD307"/>
<path d="M0.999961 72.0391H-3.91006e-05V73.0391H0.999961V72.0391ZM0.999961 1.95906V0.959061H-3.91006e-05V1.95906H0.999961ZM15.4 1.95906H16.4V0.959061H15.4V1.95906ZM15.4 59.0791H14.4V60.0791H15.4V59.0791ZM43.72 59.0791H44.72V58.0791H43.72V59.0791ZM43.72 72.0391V73.0391H44.72V72.0391H43.72ZM0.999961 72.0391H1.99996V1.95906H0.999961H-3.91006e-05V72.0391H0.999961ZM0.999961 1.95906V2.95906H15.4V1.95906V0.959061H0.999961V1.95906ZM15.4 1.95906H14.4V59.0791H15.4H16.4V1.95906H15.4ZM15.4 59.0791V60.0791H43.72V59.0791V58.0791H15.4V59.0791ZM43.72 59.0791H42.72V72.0391H43.72H44.72V59.0791H43.72ZM43.72 72.0391V71.0391H0.999961V72.0391V73.0391H43.72V72.0391ZM59.5225 67.0471L58.8323 67.7707V67.7707L59.5225 67.0471ZM59.5225 6.95106L60.2068 7.68027L60.2127 7.67467L59.5225 6.95106ZM93.1225 6.95106L92.4322 7.67469L92.4381 7.68024L93.1225 6.95106ZM93.1225 67.0471L93.8127 67.7707V67.7707L93.1225 67.0471ZM76.3225 72.9991V71.9991C69.4786 71.9991 64.1468 70.076 60.2127 66.3235L59.5225 67.0471L58.8323 67.7707C63.2181 71.9541 69.0864 73.9991 76.3225 73.9991V72.9991ZM59.5225 67.0471L60.2127 66.3235C56.2861 62.5781 54.2825 57.483 54.2825 50.9191H53.2825H52.2825C52.2825 57.9231 54.4389 63.58 58.8323 67.7707L59.5225 67.0471ZM53.2825 50.9191H54.2825V23.0791H53.2825H52.2825V50.9191H53.2825ZM53.2825 23.0791H54.2825C54.2825 16.4475 56.288 11.3578 60.2068 7.68024L59.5225 6.95106L58.8382 6.22187C54.4369 10.3523 52.2825 16.0147 52.2825 23.0791H53.2825ZM59.5225 6.95106L60.2127 7.67467C64.1468 3.9221 69.4786 1.99906 76.3225 1.99906V0.999062V-0.000938416C69.0864 -0.000938416 63.2181 2.04402 58.8323 6.22745L59.5225 6.95106ZM76.3225 0.999062V1.99906C83.1664 1.99906 88.4981 3.9221 92.4323 7.67467L93.1225 6.95106L93.8127 6.22745C89.4268 2.04402 83.5586 -0.000938416 76.3225 -0.000938416V0.999062ZM93.1225 6.95106L92.4381 7.68024C96.3569 11.3578 98.3625 16.4475 98.3625 23.0791H99.3625H100.362C100.362 16.0147 98.208 10.3523 93.8068 6.22187L93.1225 6.95106ZM99.3625 23.0791H98.3625V50.9191H99.3625H100.362V23.0791H99.3625ZM99.3625 50.9191H98.3625C98.3625 57.483 96.3589 62.5781 92.4323 66.3235L93.1225 67.0471L93.8127 67.7707C98.2061 63.58 100.362 57.9231 100.362 50.9191H99.3625ZM93.1225 67.0471L92.4323 66.3235C88.4981 70.076 83.1664 71.9991 76.3225 71.9991V72.9991V73.9991C83.5586 73.9991 89.4268 71.9541 93.8127 67.7707L93.1225 67.0471ZM76.3225 60.5191V61.5191C79.3566 61.5191 81.8159 60.7598 83.5096 59.0662C85.2032 57.3725 85.9625 54.9132 85.9625 51.8791H84.9625H83.9625C83.9625 54.6049 83.2817 56.4656 82.0954 57.652C80.909 58.8383 79.0483 59.5191 76.3225 59.5191V60.5191ZM84.9625 51.8791H85.9625V22.1191H84.9625H83.9625V51.8791H84.9625ZM84.9625 22.1191H85.9625C85.9625 19.0849 85.2032 16.6256 83.5096 14.932C81.8159 13.2383 79.3566 12.4791 76.3225 12.4791V13.4791V14.4791C79.0483 14.4791 80.909 15.1598 82.0954 16.3462C83.2817 17.5325 83.9625 19.3932 83.9625 22.1191H84.9625ZM76.3225 13.4791V12.4791C73.2883 12.4791 70.829 13.2383 69.1354 14.932C67.4417 16.6256 66.6825 19.0849 66.6825 22.1191H67.6825H68.6825C68.6825 19.3932 69.3633 17.5325 70.5496 16.3462C71.7359 15.1598 73.5966 14.4791 76.3225 14.4791V13.4791ZM67.6825 22.1191H66.6825V51.8791H67.6825H68.6825V22.1191H67.6825ZM67.6825 51.8791H66.6825C66.6825 54.9132 67.4417 57.3725 69.1354 59.0662C70.829 60.7598 73.2883 61.5191 76.3225 61.5191V60.5191V59.5191C73.5966 59.5191 71.7359 58.8383 70.5496 57.652C69.3633 56.4656 68.6825 54.6049 68.6825 51.8791H67.6825ZM121.981 70.4071L121.527 71.2982L121.534 71.3015L121.54 71.3047L121.981 70.4071ZM113.725 63.0151L112.867 63.5296L112.874 63.5397L112.88 63.5497L113.725 63.0151ZM113.725 10.9831L112.88 10.4484L112.876 10.4546L112.872 10.4609L113.725 10.9831ZM121.981 3.68706L122.422 4.58473L122.428 4.58153L122.435 4.57822L121.981 3.68706ZM146.557 3.68706L146.097 4.57481L146.106 4.57988L146.116 4.58473L146.557 3.68706ZM154.717 10.9831L153.864 11.5052L153.868 11.5115L153.872 11.5177L154.717 10.9831ZM157.693 22.1191V23.1191H158.693V22.1191H157.693ZM143.293 22.1191H142.293V23.1191H143.293V22.1191ZM140.893 15.6871L140.201 16.409L140.208 16.4161L140.216 16.423L140.893 15.6871ZM127.549 15.6871L126.872 14.9511L126.864 14.958L126.857 14.9651L127.549 15.6871ZM127.549 58.3111L126.842 59.0182L126.857 59.0329L126.872 59.047L127.549 58.3111ZM140.893 58.3111L141.585 59.0331L141.585 59.0324L140.893 58.3111ZM143.293 45.3511H144.293V44.3511H143.293V45.3511ZM132.925 45.3511H131.925V46.3511H132.925V45.3511ZM132.925 33.1591V32.1591H131.925V33.1591H132.925ZM157.693 33.1591H158.693V32.1591H157.693V33.1591ZM154.717 63.0151L153.867 62.4881L153.864 62.4929L154.717 63.0151ZM146.557 70.4071L147.004 71.3015L147.011 71.2982L146.557 70.4071ZM134.269 72.9991V71.9991C129.721 71.9991 125.781 71.1584 122.422 69.5094L121.981 70.4071L121.54 71.3047C125.221 73.1118 129.473 73.9991 134.269 73.9991V72.9991ZM121.981 70.4071L122.435 69.5159C119.064 67.8 116.452 65.4547 114.57 62.4804L113.725 63.0151L112.88 63.5497C114.966 66.8474 117.858 69.4302 121.527 71.2982L121.981 70.4071ZM113.725 63.0151L114.582 62.5006C112.768 59.4757 111.845 55.9463 111.845 51.8791H110.845H109.845C109.845 56.2599 110.842 60.1544 112.867 63.5296L113.725 63.0151ZM110.845 51.8791H111.845V22.1191H110.845H109.845V51.8791H110.845ZM110.845 22.1191H111.845C111.845 17.9843 112.769 14.4595 114.578 11.5052L113.725 10.9831L112.872 10.4609C110.841 13.7786 109.845 17.6779 109.845 22.1191H110.845ZM113.725 10.9831L114.57 11.5177C116.45 8.5467 119.058 6.23618 122.422 4.58473L121.981 3.68706L121.54 2.78939C117.864 4.59393 114.968 7.14741 112.88 10.4484L113.725 10.9831ZM121.981 3.68706L122.435 4.57822C125.791 2.86974 129.726 1.99906 134.269 1.99906V0.999062V-0.000938416C129.468 -0.000938416 125.211 0.92038 121.527 2.7959L121.981 3.68706ZM134.269 0.999062V1.99906C138.879 1.99906 142.81 2.87088 146.097 4.57481L146.557 3.68706L147.017 2.79931C143.391 0.919243 139.131 -0.000938416 134.269 -0.000938416V0.999062ZM146.557 3.68706L146.116 4.58473C149.478 6.23496 152.05 8.5418 153.864 11.5052L154.717 10.9831L155.57 10.4609C153.544 7.15231 150.676 4.59515 146.998 2.78939L146.557 3.68706ZM154.717 10.9831L153.872 11.5177C155.74 14.4701 156.693 17.9903 156.693 22.1191H157.693H158.693C158.693 17.6718 157.662 13.768 155.562 10.4484L154.717 10.9831ZM157.693 22.1191V21.1191H143.293V22.1191V23.1191H157.693V22.1191ZM143.293 22.1191H144.293C144.293 19.1107 143.432 16.6645 141.57 14.9511L140.893 15.6871L140.216 16.423C141.554 17.6536 142.293 19.4954 142.293 22.1191H143.293ZM140.893 15.6871L141.585 14.9651C139.805 13.2592 137.314 12.4791 134.269 12.4791V13.4791V14.4791C136.984 14.4791 138.909 15.1709 140.201 16.409L140.893 15.6871ZM134.269 13.4791V12.4791C131.221 12.4791 128.71 13.2603 126.872 14.9511L127.549 15.6871L128.226 16.423C129.588 15.1698 131.557 14.4791 134.269 14.4791V13.4791ZM127.549 15.6871L126.857 14.9651C125.066 16.6811 124.245 19.1225 124.245 22.1191H125.245H126.245C126.245 19.4837 126.959 17.6371 128.241 16.409L127.549 15.6871ZM125.245 22.1191H124.245V51.8791H125.245H126.245V22.1191H125.245ZM125.245 51.8791H124.245C124.245 54.8218 125.072 57.2478 126.842 59.0182L127.549 58.3111L128.256 57.604C126.954 56.3023 126.245 54.4403 126.245 51.8791H125.245ZM127.549 58.3111L126.872 59.047C128.71 60.7378 131.221 61.5191 134.269 61.5191V60.5191V59.5191C131.557 59.5191 129.588 58.8283 128.226 57.5751L127.549 58.3111ZM134.269 60.5191V61.5191C137.314 61.5191 139.805 60.7389 141.585 59.0331L140.893 58.3111L140.201 57.5891C138.909 58.8272 136.984 59.5191 134.269 59.5191V60.5191ZM140.893 58.3111L141.585 59.0324C143.427 57.2644 144.293 54.8335 144.293 51.8791H143.293H142.293C142.293 54.4286 141.559 56.2857 140.2 57.5897L140.893 58.3111ZM143.293 51.8791H144.293V45.3511H143.293H142.293V51.8791H143.293ZM143.293 45.3511V44.3511H132.925V45.3511V46.3511H143.293V45.3511ZM132.925 45.3511H133.925V33.1591H132.925H131.925V45.3511H132.925ZM132.925 33.1591V34.1591H157.693V33.1591V32.1591H132.925V33.1591ZM157.693 33.1591H156.693V51.8791H157.693H158.693V33.1591H157.693ZM157.693 51.8791H156.693C156.693 55.9402 155.741 59.4651 153.867 62.4881L154.717 63.0151L155.567 63.542C157.661 60.165 158.693 56.2659 158.693 51.8791H157.693ZM154.717 63.0151L153.864 62.4929C152.048 65.4597 149.471 67.8012 146.103 69.5159L146.557 70.4071L147.011 71.2982C150.683 69.4289 153.546 66.8424 155.57 63.5372L154.717 63.0151ZM146.557 70.4071L146.11 69.5126C142.82 71.1573 138.884 71.9991 134.269 71.9991V72.9991V73.9991C139.126 73.9991 143.381 73.1128 147.004 71.3015L146.557 70.4071ZM170.327 72.0391H169.327V73.0391H170.327V72.0391ZM170.327 59.0791V58.0791H169.327V59.0791H170.327ZM184.247 59.0791V60.0791H185.247V59.0791H184.247ZM184.247 14.9191H185.247V13.9191H184.247V14.9191ZM170.327 14.9191H169.327V15.9191H170.327V14.9191ZM170.327 1.95906V0.959061H169.327V1.95906H170.327ZM212.567 1.95906H213.567V0.959061H212.567V1.95906ZM212.567 14.9191V15.9191H213.567V14.9191H212.567ZM198.647 14.9191V13.9191H197.647V14.9191H198.647ZM198.647 59.0791H197.647V60.0791H198.647V59.0791ZM212.567 59.0791H213.567V58.0791H212.567V59.0791ZM212.567 72.0391V73.0391H213.567V72.0391H212.567ZM170.327 72.0391H171.327V59.0791H170.327H169.327V72.0391H170.327ZM170.327 59.0791V60.0791H184.247V59.0791V58.0791H170.327V59.0791ZM184.247 59.0791H185.247V14.9191H184.247H183.247V59.0791H184.247ZM184.247 14.9191V13.9191H170.327V14.9191V15.9191H184.247V14.9191ZM170.327 14.9191H171.327V1.95906H170.327H169.327V14.9191H170.327ZM170.327 1.95906V2.95906H212.567V1.95906V0.959061H170.327V1.95906ZM212.567 1.95906H211.567V14.9191H212.567H213.567V1.95906H212.567ZM212.567 14.9191V13.9191H198.647V14.9191V15.9191H212.567V14.9191ZM198.647 14.9191H197.647V59.0791H198.647H199.647V14.9191H198.647ZM198.647 59.0791V60.0791H212.567V59.0791V58.0791H198.647V59.0791ZM212.567 59.0791H211.567V72.0391H212.567H213.567V59.0791H212.567ZM212.567 72.0391V71.0391H170.327V72.0391V73.0391H212.567V72.0391ZM225.97 72.0391H224.97V73.0391H225.97V72.0391ZM225.97 1.95906V0.959061H224.97V1.95906H225.97ZM242.77 1.95906L243.718 1.64182L243.49 0.959061H242.77V1.95906ZM260.914 56.1991L259.966 56.5163L261.911 56.1182L260.914 56.1991ZM260.242 48.0391L259.245 48.1204L259.245 48.1221L260.242 48.0391ZM259.57 38.7271L258.571 38.7678L258.571 38.7786L258.572 38.7894L259.57 38.7271ZM259.378 1.95906V0.959061H258.378V1.95906H259.378ZM272.05 1.95906H273.05V0.959061H272.05V1.95906ZM272.05 72.0391V73.0391H273.05V72.0391H272.05ZM255.25 72.0391L254.301 72.3533L254.528 73.0391H255.25V72.0391ZM237.298 17.7991L238.247 17.4849L236.302 17.8924L237.298 17.7991ZM237.874 25.0951L238.872 25.027V25.027L237.874 25.0951ZM238.354 33.6391L237.355 33.6835L237.355 33.6945L237.356 33.7056L238.354 33.6391ZM238.642 72.0391V73.0391H239.642V72.0391H238.642ZM225.97 72.0391H226.97V1.95906H225.97H224.97V72.0391H225.97ZM225.97 1.95906V2.95906H242.77V1.95906V0.959061H225.97V1.95906ZM242.77 1.95906L241.822 2.2763L259.966 56.5163L260.914 56.1991L261.862 55.8818L243.718 1.64182L242.77 1.95906ZM260.914 56.1991L261.911 56.1182C261.719 53.7493 261.495 51.0286 261.239 47.956L260.242 48.0391L259.245 48.1221C259.501 51.1936 259.725 53.9128 259.917 56.2799L260.914 56.1991ZM260.242 48.0391L261.239 47.9577C260.983 44.8279 260.76 41.7302 260.568 38.6647L259.57 38.7271L258.572 38.7894C258.764 41.8679 258.989 44.9782 259.245 48.1204L260.242 48.0391ZM259.57 38.7271L260.569 38.6863C260.441 35.5585 260.378 32.917 260.378 30.7591H259.378H258.378C258.378 32.9531 258.442 35.6236 258.571 38.7678L259.57 38.7271ZM259.378 30.7591H260.378V1.95906H259.378H258.378V30.7591H259.378ZM259.378 1.95906V2.95906H272.05V1.95906V0.959061H259.378V1.95906ZM272.05 1.95906H271.05V72.0391H272.05H273.05V1.95906H272.05ZM272.05 72.0391V71.0391H255.25V72.0391V73.0391H272.05V72.0391ZM255.25 72.0391L256.199 71.7249L238.247 17.4849L237.298 17.7991L236.349 18.1133L254.301 72.3533L255.25 72.0391ZM237.298 17.7991L236.302 17.8924C236.493 19.9295 236.685 22.3527 236.876 25.1631L237.874 25.0951L238.872 25.027C238.679 22.2054 238.487 19.7646 238.294 17.7057L237.298 17.7991ZM237.874 25.0951L236.876 25.1631C237.068 27.9711 237.227 30.8112 237.355 33.6835L238.354 33.6391L239.353 33.5947C239.225 30.7069 239.064 27.8511 238.872 25.027L237.874 25.0951ZM238.354 33.6391L237.356 33.7056C237.547 36.5694 237.642 39.1065 237.642 41.3191H238.642H239.642C239.642 39.0516 239.545 36.4687 239.352 33.5725L238.354 33.6391ZM238.642 41.3191H237.642V72.0391H238.642H239.642V41.3191H238.642ZM238.642 72.0391V71.0391H225.97V72.0391V73.0391H238.642V72.0391Z" fill="#FFD307" mask="url(#path-1-outside-1_684_2254)"/>
</svg>
